<svg xmlns="http://www.w3.org/2000/svg" viewBox="0 0 40.18 25.8"><defs><style>.cls-1,.cls-2{fill:#aa925e;}.cls-2,.cls-3{fill-rule:evenodd;}.cls-3{fill:#12214f;}</style></defs><title>Asset 9Logo</title><g id="Layer_2" data-name="Layer 2"><g id="Layer_1-2" data-name="Layer 1"><path class="cls-1" d="M34.28,8A2.1,2.1,0,0,1,35,7.63a3.61,3.61,0,0,1,1-.13,2.55,2.55,0,0,1,.72.1,2.19,2.19,0,0,1,.66.28A1.92,1.92,0,0,1,38,8.4a1.61,1.61,0,0,1,.24.79v.13H40.1V8h-.48a3.67,3.67,0,0,0-.56-.83,3.55,3.55,0,0,0-.78-.66,4.06,4.06,0,0,0-1-.43A4.46,4.46,0,0,0,36.1,6a5.49,5.49,0,0,0-1.74.26,3.86,3.86,0,0,0-1.28.71A3.07,3.07,0,0,0,32.28,8,3.12,3.12,0,0,0,32,9.3a3.67,3.67,0,0,0,.18,1.21,2.92,2.92,0,0,0,.52.91,3.2,3.2,0,0,0,.82.67,4.54,4.54,0,0,0,1,.44l1.73.49.72.26a3,3,0,0,1,.68.38,2.13,2.13,0,0,1,.51.57,1.56,1.56,0,0,1,.2.8,1.84,1.84,0,0,1-.16.76,1.62,1.62,0,0,1-.46.58,2.31,2.31,0,0,1-.72.36,4,4,0,0,1-2,0,2.33,2.33,0,0,1-.78-.36,1.6,1.6,0,0,1-.5-.59,2.3,2.3,0,0,1-.18-1v-.13H31.72V16h.48a4.62,4.62,0,0,0,.41.91,3,3,0,0,0,.72.81,3.57,3.57,0,0,0,1.12.57,5.24,5.24,0,0,0,1.59.21,5,5,0,0,0,1.67-.27A4.07,4.07,0,0,0,39,17.44a3.46,3.46,0,0,0,.86-1.11,3.21,3.21,0,0,0,.3-1.39A3.51,3.51,0,0,0,40,13.72a2.65,2.65,0,0,0-.58-.93,3.39,3.39,0,0,0-.93-.7,7.75,7.75,0,0,0-1.27-.52l-1.59-.52L35,10.82a2.37,2.37,0,0,1-.62-.3,1.59,1.59,0,0,1-.46-.5,1.63,1.63,0,0,1-.18-.82,1.51,1.51,0,0,1,.15-.65A1.42,1.42,0,0,1,34.28,8Z"/><polygon class="cls-2" points="15.41 0 16.97 1.73 18.53 0 20.9 0 18.54 2.63 15.41 2.63 13.04 0 15.41 0"/><path class="cls-1" d="M18.7,18.54a3.58,3.58,0,0,1-1.58,3.37c-.24.15-1.89,1.05-1.89,1.05V21s.57-.31.71-.4a2.07,2.07,0,0,0,.65-.6A2.88,2.88,0,0,0,17,18.35V5.12H15.26V3.52H18.7Z"/><path class="cls-1" d="M28,6v1.4h.58V13a5.82,5.82,0,0,1-.23,1.81A3,3,0,0,1,27.73,16a2.33,2.33,0,0,1-1,.61,4,4,0,0,1-2.48,0,2.52,2.52,0,0,1-1-.65,3.41,3.41,0,0,1-.63-1.17A5.82,5.82,0,0,1,22.45,13V6H20.12v1.4h.61V13a6.81,6.81,0,0,0,.36,2.3,5.17,5.17,0,0,0,1,1.71,4.27,4.27,0,0,0,1.5,1.06,4.6,4.6,0,0,0,1.85.37,5,5,0,0,0,1.9-.37A4.44,4.44,0,0,0,28.88,17a5,5,0,0,0,1-1.75,7.06,7.06,0,0,0,.37-2.39V6Z"/><path class="cls-3" d="M8.42,10.3v2.49h3.15l-.24.58a3.94,3.94,0,0,1-3.74,2.15,4,4,0,0,1-4.13-4.36A4.06,4.06,0,0,1,7.59,6.78a4.06,4.06,0,0,1,3.63,2h3.47A7,7,0,0,0,7.5,3.47,7.47,7.47,0,0,0,0,11.16,7.27,7.27,0,0,0,7.59,18.5,7.08,7.08,0,0,0,13,15.94a8.56,8.56,0,0,0,2-5.64Z"/><path class="cls-2" d="M20.72,25.78l.08-.13.08-.16a1,1,0,0,0,.07-.18V24.06h-.17v-.3h.62v.3h-.13v1.28a1.11,1.11,0,0,1-.07.16l-.1.14L21,25.8Zm16.82-.23-.19,0-.16-.07-.13-.1a.57.57,0,0,1-.08-.13v0h-.11v-.29h.36v0a.36.36,0,0,0,0,.11l.06.09a.21.21,0,0,0,.1.06l.14,0a.24.24,0,0,0,.18-.06.19.19,0,0,0,.07-.16.2.2,0,0,0,0-.09l-.06-.07-.08,0-.08,0-.27-.09a.35.35,0,0,1-.14-.06.4.4,0,0,1-.12-.1.38.38,0,0,1-.09-.15.48.48,0,0,1,0-.18A.51.51,0,0,1,37,24a.61.61,0,0,1,.12-.16l.19-.1a1,1,0,0,1,.26,0l.19,0a.59.59,0,0,1,.16.07l.12.09a.38.38,0,0,1,.08.11v0h.1v.29h-.36v-.07a.3.3,0,0,0,0-.1.46.46,0,0,0-.07-.07L37.62,24h-.2s-.05,0-.08,0l-.05.06a.16.16,0,0,0,0,.09.18.18,0,0,0,0,.11l.07.06.09,0,.09,0,.33.11.12.06a.43.43,0,0,1,.09.1.4.4,0,0,1,.07.13.7.7,0,0,1,0,.16.59.59,0,0,1-.05.23.52.52,0,0,1-.12.17.82.82,0,0,1-.2.12A1.09,1.09,0,0,1,37.54,25.55ZM33,22.16a.63.63,0,0,1-.19,0,.52.52,0,0,1-.16-.06.58.58,0,0,1-.12-.1.38.38,0,0,1-.09-.13v0h-.12v-.29h.37v0a.43.43,0,0,0,0,.11.24.24,0,0,0,.06.09l.1.06.13,0a.27.27,0,0,0,.19-.06.22.22,0,0,0,.07-.16.19.19,0,0,0-.09-.16l-.07,0-.08,0-.28-.09-.14-.07a.53.53,0,0,1-.12-.1.47.47,0,0,1-.08-.14.48.48,0,0,1,0-.18.51.51,0,0,1,0-.22.4.4,0,0,1,.13-.16.57.57,0,0,1,.19-.1,1,1,0,0,1,.25,0l.2,0,.16.07a.38.38,0,0,1,.12.09.26.26,0,0,1,.07.11v0h.11v.29h-.37v-.07a.17.17,0,0,0,0-.1.23.23,0,0,0-.07-.07l-.09-.05-.11,0-.09,0a.11.11,0,0,0-.08,0,.17.17,0,0,0-.06.06.29.29,0,0,0,0,.09.2.2,0,0,0,0,.11l.07.06.09,0L33,21l.33.11a.34.34,0,0,1,.12.06.47.47,0,0,1,.1.1.34.34,0,0,1,.06.12.47.47,0,0,1,0,.17.59.59,0,0,1,0,.23.52.52,0,0,1-.13.17.43.43,0,0,1-.2.11A.67.67,0,0,1,33,22.16Zm-4.45,0a.58.58,0,0,1-.19,0,.76.76,0,0,1-.16-.06L28,22a.35.35,0,0,1-.08-.13v0h-.11v-.3h.36v0a.36.36,0,0,0,0,.11l.06.1a.31.31,0,0,0,.1,0,.29.29,0,0,0,.14,0,.24.24,0,0,0,.18-.06.21.21,0,0,0,.07-.17.16.16,0,0,0,0-.09l-.06-.06-.07,0-.08,0-.27-.09-.15-.06-.12-.1A.64.64,0,0,1,27.9,21a.58.58,0,0,1,0-.19.46.46,0,0,1,.05-.21.4.4,0,0,1,.12-.16.5.5,0,0,1,.19-.1.69.69,0,0,1,.25,0,.64.64,0,0,1,.2,0,.76.76,0,0,1,.16.06.4.4,0,0,1,.12.1l.08.1v0h.11v.3h-.37v-.08a.16.16,0,0,0,0-.09.23.23,0,0,0-.07-.07.19.19,0,0,0-.09-.05l-.11,0h-.09a.2.2,0,0,0-.08,0,.17.17,0,0,0-.06.06.2.2,0,0,0,0,.09.15.15,0,0,0,0,.1.13.13,0,0,0,.07.06l.09,0,.09,0,.32.11a.23.23,0,0,1,.12.06.28.28,0,0,1,.1.09.31.31,0,0,1,.06.13.41.41,0,0,1,0,.16.56.56,0,0,1-.05.23A.46.46,0,0,1,29,22a.59.59,0,0,1-.19.11A.75.75,0,0,1,28.51,22.16Zm6.77,3.38a.85.85,0,0,1-.23,0,.72.72,0,0,1-.2-.09l-.17-.14-.13-.18a1,1,0,0,1-.08-.22,1,1,0,0,1,0-.24,1,1,0,0,1,0-.25.9.9,0,0,1,.08-.21,1.27,1.27,0,0,1,.13-.19l.17-.14a.72.72,0,0,1,.2-.09.91.91,0,0,1,.23,0,.85.85,0,0,1,.23,0,.72.72,0,0,1,.2.09l.17.14a.8.8,0,0,1,.13.19.78.78,0,0,1,.09.21,1,1,0,0,1,0,.25,1,1,0,0,1,0,.24.85.85,0,0,1-.09.22.75.75,0,0,1-.13.18l-.17.14a.72.72,0,0,1-.2.09A.85.85,0,0,1,35.28,25.54Zm0-1.5a.35.35,0,0,0-.2.05.34.34,0,0,0-.16.13.59.59,0,0,0-.11.19.85.85,0,0,0,0,.23.78.78,0,0,0,0,.22.5.5,0,0,0,.11.19.34.34,0,0,0,.16.13.35.35,0,0,0,.2.05.36.36,0,0,0,.21-.05.48.48,0,0,0,.16-.13.67.67,0,0,0,.1-.19.78.78,0,0,0,0-.22.8.8,0,0,0,0-.23.59.59,0,0,0-.11-.19.34.34,0,0,0-.16-.13A.35.35,0,0,0,35.28,24Zm-2.37,1.5a.85.85,0,0,1-.23,0,.72.72,0,0,1-.2-.09l-.17-.14a.8.8,0,0,1-.13-.19.78.78,0,0,1-.09-.21,1,1,0,0,1,0-.25,1,1,0,0,1,.07-.35.79.79,0,0,1,.18-.29,1,1,0,0,1,.27-.19.72.72,0,0,1,.33-.07.75.75,0,0,1,.23,0,.8.8,0,0,1,.22.14h.25v.34h-.32a.51.51,0,0,0-.12-.13.27.27,0,0,0-.12-.06.34.34,0,0,0-.14,0,.35.35,0,0,0-.2.05.34.34,0,0,0-.16.13.5.5,0,0,0-.11.19.78.78,0,0,0,0,.22.8.8,0,0,0,0,.23.59.59,0,0,0,.11.19.37.37,0,0,0,.15.13.5.5,0,0,0,.21.05l.14,0,.13-.07.09-.09a.41.41,0,0,0,0-.09l.33.09a1.62,1.62,0,0,1-.1.18.61.61,0,0,1-.16.16.65.65,0,0,1-.22.11A.75.75,0,0,1,32.91,25.54Zm-2.2-3.39a.84.84,0,0,1-.43-.12.75.75,0,0,1-.17-.14,1.18,1.18,0,0,1-.13-.18.83.83,0,0,1-.08-.22,1,1,0,0,1,0-.24.88.88,0,0,1,0-.24.83.83,0,0,1,.08-.22,1.27,1.27,0,0,1,.13-.19l.17-.14a.88.88,0,0,1,.2-.09.91.91,0,0,1,.23,0,.85.85,0,0,1,.23,0,.72.72,0,0,1,.2.09l.17.14a.8.8,0,0,1,.13.19.85.85,0,0,1,.09.22.88.88,0,0,1,0,.24,1,1,0,0,1,0,.24.85.85,0,0,1-.09.22.86.86,0,0,1-.3.32.72.72,0,0,1-.2.09A.85.85,0,0,1,30.71,22.15Zm0-1.5a.46.46,0,0,0-.2.05.34.34,0,0,0-.16.13.59.59,0,0,0-.11.19.85.85,0,0,0,0,.23.59.59,0,0,0,0,.23.5.5,0,0,0,.1.19.7.7,0,0,0,.16.13.45.45,0,0,0,.2,0,.46.46,0,0,0,.21,0,.65.65,0,0,0,.16-.13.69.69,0,0,0,.1-.19.91.91,0,0,0,0-.23.63.63,0,0,0-.13-.42.48.48,0,0,0-.16-.13A.5.5,0,0,0,30.71,20.65ZM21.6,22.17a.54.54,0,0,1-.22,0,.78.78,0,0,1-.21-.09A.75.75,0,0,1,21,21.9a.83.83,0,0,1-.21-.4,1,1,0,0,1,0-.24,1,1,0,0,1,.06-.36,1.34,1.34,0,0,1,.18-.28.86.86,0,0,1,.27-.2.88.88,0,0,1,.33-.07.55.55,0,0,1,.24,0,.86.86,0,0,1,.21.13h.26v.34H22l-.12-.13a.31.31,0,0,0-.13-.06l-.14,0a.46.46,0,0,0-.2.05.48.48,0,0,0-.16.13.57.57,0,0,0-.1.19.68.68,0,0,0,0,.46.5.5,0,0,0,.1.19.7.7,0,0,0,.16.13.45.45,0,0,0,.2,0,.39.39,0,0,0,.15,0l.12-.07a.26.26,0,0,0,.09-.09l.06-.09.32.1a.56.56,0,0,1-.09.17.91.91,0,0,1-.17.17,1.13,1.13,0,0,1-.22.11A1.09,1.09,0,0,1,21.6,22.17Zm1.31,3.37a.63.63,0,0,1-.27-.06.6.6,0,0,1-.21-.14.72.72,0,0,1-.14-.24.78.78,0,0,1-.05-.31V24h-.17v-.27h.66V24h-.16v.78a.92.92,0,0,0,0,.19.54.54,0,0,0,.07.13.29.29,0,0,0,.12.07.27.27,0,0,0,.13,0h.14a.3.3,0,0,0,.19-.21.92.92,0,0,0,0-.19V24h-.19v-.27h.66V24h-.14v.74a.79.79,0,0,1-.06.32.57.57,0,0,1-.14.24.54.54,0,0,1-.22.15A.58.58,0,0,1,22.91,25.54Zm1-3.38a.58.58,0,0,1-.26-.06.64.64,0,0,1-.22-.14.72.72,0,0,1-.14-.24,1,1,0,0,1,0-.31v-.76h-.17v-.27h.67v.27h-.17v.78a1,1,0,0,0,0,.19.57.57,0,0,0,.08.13.26.26,0,0,0,.11.07.32.32,0,0,0,.14,0h.13a.25.25,0,0,0,.12-.08.32.32,0,0,0,.07-.13.92.92,0,0,0,0-.19v-.78h-.19v-.27h.66v.27h-.14v.74a.79.79,0,0,1-.06.32.68.68,0,0,1-.14.25.55.55,0,0,1-.22.14A.58.58,0,0,1,24,22.16Zm6.69,3.35v-.26h.18V24h-.18v-.26h.71V24h-.2v1.23h.2v.26Zm-2.32,0v-.26h.14V24h-.14v-.27H29a.85.85,0,0,1,.23,0,1,1,0,0,1,.21.09.75.75,0,0,1,.17.14.7.7,0,0,1,.13.17,1,1,0,0,1,.09.21.91.91,0,0,1,0,.23,1,1,0,0,1,0,.24,1,1,0,0,1-.09.21.7.7,0,0,1-.13.17.75.75,0,0,1-.17.14.78.78,0,0,1-.21.09.85.85,0,0,1-.23,0Zm.47-.26H29a.46.46,0,0,0,.2-.05.65.65,0,0,0,.16-.13.63.63,0,0,0,.1-.2.61.61,0,0,0,0-.24.59.59,0,0,0,0-.23.63.63,0,0,0-.1-.2l-.16-.13a.45.45,0,0,0-.2,0h-.19Zm-1.91.26v-.26h.18V24h-.18v-.26h.71V24h-.2v1.23h.2v.26Zm-1.24,0-.06-.4a.57.57,0,0,0,0-.14.24.24,0,0,0-.06-.1.24.24,0,0,0-.11-.06.27.27,0,0,0-.13,0h-.19v.46h.16v.26h-.68v-.26h.19V24h-.19v-.27h.93a.73.73,0,0,1,.23,0,.54.54,0,0,1,.18.11.42.42,0,0,1,.11.15.57.57,0,0,1,0,.18.66.66,0,0,1,0,.15.45.45,0,0,1-.06.12.3.3,0,0,1-.08.08l-.12.07-.06,0,.06,0a.26.26,0,0,1,.09.09.52.52,0,0,1,.07.15l.07.26h.14v.29Zm-.59-1h.4a.23.23,0,0,0,.1-.05.2.2,0,0,0,.08-.08.36.36,0,0,0,0-.11.23.23,0,0,0-.09-.19.4.4,0,0,0-.24-.06h-.27Zm1.63-2.4-.07-.4c0-.06,0-.1,0-.14a.41.41,0,0,0-.07-.11l-.1-.06h-.33v.46h.17v.26h-.69v-.26h.19V20.64h-.19v-.26h.93a.61.61,0,0,1,.24,0,.55.55,0,0,1,.17.1.42.42,0,0,1,.11.16.37.37,0,0,1,0,.18A.68.68,0,0,1,27,21a.37.37,0,0,1-.05.11l-.09.09a.35.35,0,0,1-.12.07l-.06,0,.06,0a.28.28,0,0,1,.1.09.42.42,0,0,1,.06.15l.07.26h.14v.29Zm-.6-1h.4a.28.28,0,0,0,.11-.05.27.27,0,0,0,.07-.08.2.2,0,0,0,0-.11.24.24,0,0,0-.08-.19.37.37,0,0,0-.25-.07h-.27Zm.85,2.38.21-.31h.32l-.33.31Z"/></g></g></svg>