<svg xmlns="http://www.w3.org/2000/svg" viewBox="0 0 93.55 24.07"><defs><style>.cls-1{fill:#0b224e;}.cls-1,.cls-3{fill-rule:evenodd;}.cls-2,.cls-3{fill:#aa925e;}</style></defs><title>Asset 13Logo</title><g id="Layer_2" data-name="Layer 2"><g id="Layer_1-2" data-name="Layer 1"><path class="cls-1" d="M8.4,10.48V13h3.14l-.23.58a3.92,3.92,0,0,1-3.73,2.16,4,4,0,0,1-4.13-4.33A4.06,4.06,0,0,1,7.56,7a4.06,4.06,0,0,1,3.63,2h3.47A7,7,0,0,0,7.45,3.66,7.46,7.46,0,0,0,0,11.37a7.25,7.25,0,0,0,7.6,7.29A7.06,7.06,0,0,0,13,16.09a8.6,8.6,0,0,0,1.94-5.64Z"/><polygon class="cls-1" points="31.76 16.09 31.72 6.18 28.27 6.19 28.32 18.58 35.48 18.55 35.48 16.07 31.76 16.09"/><path class="cls-1" d="M40.26,6.15H36.53l0,12.39h3.73a6.07,6.07,0,0,0,6.36-6.23,6,6,0,0,0-6.41-6.16Zm-.13,9.26H40l0-6.13h.13a2.88,2.88,0,0,1,3.06,3,2.91,2.91,0,0,1-3,3.09Z"/><polygon class="cls-1" points="51.17 16 51.16 13.39 54.46 13.38 54.45 11.18 51.15 11.2 51.14 8.59 54.91 8.57 54.9 6.09 47.73 6.12 47.78 18.51 55.09 18.48 55.08 15.99 51.17 16"/><polygon class="cls-1" points="63.82 6.06 63.84 12.49 59.12 6.08 56 6.09 56.05 18.48 59.39 18.46 59.37 11.67 64.36 18.44 67.21 18.43 67.16 6.04 63.82 6.06"/><path class="cls-1" d="M21.25,18.61c3.78,0,6.51-2.63,6.5-6.22S25,6.2,21.21,6.22s-6.51,2.61-6.5,6.22,2.75,6.18,6.54,6.17Zm0-3a3,3,0,0,1-3.11-3.19,3.1,3.1,0,1,1,6.19,0A3,3,0,0,1,21.24,15.62Z"/><path class="cls-1" d="M32.12,24.06l.1-.17a1.65,1.65,0,0,0,.1-.19,1.55,1.55,0,0,0,.08-.23V22h-.2v-.37H33v.36h-.16v1.57a.72.72,0,0,1-.09.2l-.12.17-.15.19Zm28.4-.4-.23,0-.19-.08a1.11,1.11,0,0,1-.16-.12.54.54,0,0,1-.1-.16v0h-.14v-.36h.45v.05a.68.68,0,0,0,0,.14.28.28,0,0,0,.08.11.35.35,0,0,0,.12.07.41.41,0,0,0,.16,0,.32.32,0,0,0,.23-.08.23.23,0,0,0,.08-.2.2.2,0,0,0,0-.11.27.27,0,0,0-.07-.08l-.1,0-.09,0-.34-.1L60,22.56a.44.44,0,0,1-.15-.12.66.66,0,0,1-.14-.41.75.75,0,0,1,0-.26.62.62,0,0,1,.16-.2.71.71,0,0,1,.23-.12,1,1,0,0,1,.31,0,.88.88,0,0,1,.24,0,.7.7,0,0,1,.2.08.58.58,0,0,1,.15.11,1,1,0,0,1,.09.13v0h.13v.36h-.45v-.09a.34.34,0,0,0,0-.12.38.38,0,0,0-.09-.09l-.11-.06-.13,0-.11,0a.18.18,0,0,0-.1,0,.23.23,0,0,0-.07.07.24.24,0,0,0,0,.12.21.21,0,0,0,0,.12.24.24,0,0,0,.09.08l.11,0,.1,0,.4.14a.51.51,0,0,1,.15.07.46.46,0,0,1,.12.12.53.53,0,0,1,.08.15.64.64,0,0,1,0,.2.61.61,0,0,1-.06.28.71.71,0,0,1-.15.22.68.68,0,0,1-.25.14A1,1,0,0,1,60.52,23.66Zm-33.64.13a.85.85,0,0,1-.23,0,.68.68,0,0,1-.2-.07.64.64,0,0,1-.15-.13.53.53,0,0,1-.11-.15v0H26V23h.45v.05a.35.35,0,0,0,0,.14.26.26,0,0,0,.07.11.35.35,0,0,0,.12.07.47.47,0,0,0,.17,0,.33.33,0,0,0,.23-.07.26.26,0,0,0,.08-.2.2.2,0,0,0,0-.11.3.3,0,0,0-.08-.08L27,22.9l-.1,0-.33-.11a.67.67,0,0,1-.18-.07l-.15-.13a.55.55,0,0,1-.1-.17.73.73,0,0,1,0-.23.53.53,0,0,1,.06-.26.43.43,0,0,1,.15-.2.77.77,0,0,1,.24-.12,1,1,0,0,1,.3,0l.24,0a.93.93,0,0,1,.2.08l.15.12a.38.38,0,0,1,.09.13v0h.13v.36h-.45v-.08a.21.21,0,0,0,0-.12.24.24,0,0,0-.08-.09.39.39,0,0,0-.11-.06l-.14,0h-.11l-.1.05a.23.23,0,0,0-.07.07.43.43,0,0,0,0,.11.23.23,0,0,0,0,.13l.09.08.11,0,.1,0,.41.13.14.08a.43.43,0,0,1,.12.11.8.8,0,0,1,.08.16.64.64,0,0,1,0,.2.78.78,0,0,1,0,.28.6.6,0,0,1-.16.22.72.72,0,0,1-.24.14A1.07,1.07,0,0,1,26.88,23.79Zm-7.41,0a.85.85,0,0,1-.23,0,.7.7,0,0,1-.2-.08.61.61,0,0,1-.16-.12.62.62,0,0,1-.1-.16v0h-.14v-.36h.45v.05a.28.28,0,0,0,0,.13.21.21,0,0,0,.07.11.25.25,0,0,0,.12.08l.17,0a.33.33,0,0,0,.23-.07.28.28,0,0,0,.08-.2.24.24,0,0,0,0-.12L19.67,23l-.09-.05-.1,0-.33-.11a.67.67,0,0,1-.18-.07l-.15-.13a.69.69,0,0,1-.1-.17.79.79,0,0,1,0-.23.53.53,0,0,1,.06-.26.43.43,0,0,1,.15-.2.77.77,0,0,1,.24-.12.94.94,0,0,1,.3-.05.88.88,0,0,1,.24,0,.93.93,0,0,1,.2.08.61.61,0,0,1,.15.12.38.38,0,0,1,.09.13v0h.13v.36H19.8v-.09a.21.21,0,0,0,0-.11.36.36,0,0,0-.19-.15l-.14,0h-.11l-.1,0a.27.27,0,0,0-.07.08.36.36,0,0,0,0,.11.25.25,0,0,0,0,.13l.09.08.11,0,.1,0,.41.13a.39.39,0,0,1,.14.08.43.43,0,0,1,.12.11.48.48,0,0,1,.08.16.6.6,0,0,1,0,.2.82.82,0,0,1,0,.28.69.69,0,0,1-.16.22,1,1,0,0,1-.24.14A1.07,1.07,0,0,1,19.47,23.82Zm37.31-.15a.86.86,0,0,1-.28,0,.74.74,0,0,1-.24-.11.87.87,0,0,1-.21-.17.82.82,0,0,1-.16-.22,1.53,1.53,0,0,1-.11-.27,1.45,1.45,0,0,1,0-.3.92.92,0,0,1,0-.29,1.08,1.08,0,0,1,.1-.27,1,1,0,0,1,.37-.4,1,1,0,0,1,.52-.15,1.27,1.27,0,0,1,.28,0,1.15,1.15,0,0,1,.25.12.68.68,0,0,1,.21.17.89.89,0,0,1,.16.22,1.09,1.09,0,0,1,.11.27,1.11,1.11,0,0,1,0,.59,1.08,1.08,0,0,1-.1.27,1.25,1.25,0,0,1-.16.22,1.68,1.68,0,0,1-.21.18,1.12,1.12,0,0,1-.25.11A.86.86,0,0,1,56.78,23.67Zm0-1.85a.92.92,0,0,0-.25.06.67.67,0,0,0-.2.17.71.71,0,0,0-.12.23.81.81,0,0,0,0,.56.58.58,0,0,0,.13.23.49.49,0,0,0,.19.16.54.54,0,0,0,.25.06.51.51,0,0,0,.25-.06.62.62,0,0,0,.2-.16,1,1,0,0,0,.12-.23.92.92,0,0,0,0-.28,1.16,1.16,0,0,0,0-.28.7.7,0,0,0-.13-.24.74.74,0,0,0-.19-.16A.54.54,0,0,0,56.78,21.82ZM52.9,23.68a.86.86,0,0,1-.28,0l-.25-.11a1.68,1.68,0,0,1-.21-.18,1.25,1.25,0,0,1-.16-.22,1.48,1.48,0,0,1-.1-.27,1,1,0,0,1,0-.3,1.26,1.26,0,0,1,.08-.43,1.15,1.15,0,0,1,.22-.35,1,1,0,0,1,.33-.24.9.9,0,0,1,.4-.09.81.81,0,0,1,.29,0,1,1,0,0,1,.26.17h.31v.41h-.4a.58.58,0,0,0-.14-.16.48.48,0,0,0-.16-.08l-.17,0a.54.54,0,0,0-.25.06.58.58,0,0,0-.19.16,1,1,0,0,0-.13.23.9.9,0,0,0,0,.28.82.82,0,0,0,0,.28.92.92,0,0,0,.13.24.59.59,0,0,0,.2.15.51.51,0,0,0,.25.06.57.57,0,0,0,.18,0l.14-.08a.34.34,0,0,0,.12-.12.21.21,0,0,0,.06-.1l.4.11a.7.7,0,0,1-.11.21,1,1,0,0,1-.2.21.84.84,0,0,1-.27.13A.86.86,0,0,1,52.9,23.68Zm-29.76.12a.86.86,0,0,1-.28,0,1.12,1.12,0,0,1-.25-.11,1.73,1.73,0,0,1-.21-.17.94.94,0,0,1-.16-.23.82.82,0,0,1-.1-.26,1,1,0,0,1,0-.3,1.53,1.53,0,0,1,0-.3,1.19,1.19,0,0,1,.11-.26.73.73,0,0,1,.16-.23,1.06,1.06,0,0,1,.2-.17.8.8,0,0,1,.25-.11.89.89,0,0,1,.56,0l.25.11a1.68,1.68,0,0,1,.21.18,1.25,1.25,0,0,1,.16.22,1.08,1.08,0,0,1,.1.27.92.92,0,0,1,0,.29,1.33,1.33,0,0,1-.14.57,1.12,1.12,0,0,1-.16.22.91.91,0,0,1-.21.18l-.25.11A1.17,1.17,0,0,1,23.14,23.8Zm0-1.85a.54.54,0,0,0-.25.06.6.6,0,0,0-.19.16.7.7,0,0,0-.13.24.82.82,0,0,0,0,.28.86.86,0,0,0,0,.28.65.65,0,0,0,.13.23.58.58,0,0,0,.19.16.55.55,0,0,0,.26.06.54.54,0,0,0,.25-.06.58.58,0,0,0,.19-.16.7.7,0,0,0,.13-.24.82.82,0,0,0,0-.28.87.87,0,0,0-.05-.28,1,1,0,0,0-.12-.23.62.62,0,0,0-.2-.16A.54.54,0,0,0,23.13,22Zm-15,1.91a1.26,1.26,0,0,1-.28,0l-.24-.11a.91.91,0,0,1-.21-.18.92.92,0,0,1-.17-.22,1.25,1.25,0,0,1-.1-.27,1.35,1.35,0,0,1,0-.29,1.27,1.27,0,0,1,.08-.44A1.15,1.15,0,0,1,7.34,22a1,1,0,0,1,.33-.24.9.9,0,0,1,.4-.09,1.06,1.06,0,0,1,.29,0,.88.88,0,0,1,.26.17h.32v.42H8.55a.59.59,0,0,0-.15-.16A.48.48,0,0,0,8.24,22l-.17,0a.5.5,0,0,0-.24.06.62.62,0,0,0-.2.16,1.71,1.71,0,0,0-.13.23.9.9,0,0,0,0,.28.82.82,0,0,0,0,.28.9.9,0,0,0,.12.24.59.59,0,0,0,.2.15.51.51,0,0,0,.25.06.57.57,0,0,0,.18,0l.15-.08a.43.43,0,0,0,.11-.12.36.36,0,0,0,.07-.1l.39.11a.65.65,0,0,1-.11.22,1,1,0,0,1-.2.2,1.15,1.15,0,0,1-.27.14A1.07,1.07,0,0,1,8.08,23.86Zm27.7-.12a.87.87,0,0,1-.32-.06.68.68,0,0,1-.26-.18.79.79,0,0,1-.18-.29,1.12,1.12,0,0,1-.06-.38v-.94h-.2v-.32h.81v.32h-.2v1a.69.69,0,0,0,0,.22.76.76,0,0,0,.09.16.42.42,0,0,0,.14.09.47.47,0,0,0,.17,0l.17,0a.42.42,0,0,0,.14-.09.4.4,0,0,0,.08-.16.83.83,0,0,0,0-.24v-1H36v-.32h.81v.33h-.17v.9a1.31,1.31,0,0,1-.06.41,1.19,1.19,0,0,1-.18.29.83.83,0,0,1-.26.19A.88.88,0,0,1,35.78,23.74Zm-23.85.09a.87.87,0,0,1-.32-.06.68.68,0,0,1-.26-.18.71.71,0,0,1-.18-.29,1.12,1.12,0,0,1-.06-.38V22h-.2v-.32h.81V22h-.2v1a.73.73,0,0,0,0,.22.35.35,0,0,0,.09.16.42.42,0,0,0,.14.09.47.47,0,0,0,.17,0l.17,0a.42.42,0,0,0,.14-.09.48.48,0,0,0,.08-.16.78.78,0,0,0,0-.24V22h-.24v-.32h.81V22h-.17v.9a1.31,1.31,0,0,1-.06.41,1,1,0,0,1-.18.29.83.83,0,0,1-.26.19A.88.88,0,0,1,11.93,23.83Zm37.21-.17v-.32h.23v-1.5h-.23v-.32H50v.32h-.23v1.51H50v.32Zm-3.8,0v-.32h.17v-1.5h-.18v-.32h.81a.82.82,0,0,1,.28,0,1.17,1.17,0,0,1,.26.1,1.12,1.12,0,0,1,.21.17.83.83,0,0,1,.16.21,1.19,1.19,0,0,1,.11.26,1.26,1.26,0,0,1,0,.28.92.92,0,0,1,0,.29,1.17,1.17,0,0,1-.1.26.87.87,0,0,1-.17.21.68.68,0,0,1-.21.17.71.71,0,0,1-.25.11.86.86,0,0,1-.28,0Zm.58-.32h.23a.53.53,0,0,0,.24-.06,1,1,0,0,0,.2-.16.9.9,0,0,0,.12-.24.73.73,0,0,0,0-.3.93.93,0,0,0,0-.29.58.58,0,0,0-.13-.23.53.53,0,0,0-.2-.16.48.48,0,0,0-.24-.06h-.23Zm-3.33.33v-.32h.23v-1.5h-.23v-.32h.87v.32h-.24v1.5h.23v.32Zm-2.48,0L40,23.2A.84.84,0,0,0,40,23a.57.57,0,0,0-.08-.13.4.4,0,0,0-.13-.07l-.16,0h-.23v.57h.2v.32h-.84v-.32H39v-1.5h-.23v-.32h1.13a.84.84,0,0,1,.29.05.54.54,0,0,1,.22.13.46.46,0,0,1,.13.18.59.59,0,0,1,.05.22.92.92,0,0,1,0,.19.61.61,0,0,1-.07.14.52.52,0,0,1-.1.11l-.15.09-.07,0,.07,0a.53.53,0,0,1,.12.1.68.68,0,0,1,.08.19l.08.32h.18v.35Zm-.73-1.19h.49a.31.31,0,0,0,.13-.06.27.27,0,0,0,.08-.1.28.28,0,0,0,0-.13A.3.3,0,0,0,40,22a.5.5,0,0,0-.29-.08h-.34ZM16.26,23.79l-.08-.5a.84.84,0,0,0-.05-.17.36.36,0,0,0-.08-.12.35.35,0,0,0-.13-.08l-.16,0h-.23v.57h.2v.32h-.84v-.32h.23V22h-.23v-.32H16a.84.84,0,0,1,.29.05.54.54,0,0,1,.22.13.59.59,0,0,1,.13.18.59.59,0,0,1,.05.22,1,1,0,0,1,0,.19.61.61,0,0,1-.07.14.52.52,0,0,1-.1.11l-.15.09-.07,0,.07,0a.53.53,0,0,1,.12.1.68.68,0,0,1,.08.19l.08.32h.18v.35Zm-.74-1.2h.34l.16,0a.23.23,0,0,0,.12-.06.26.26,0,0,0,.09-.09.32.32,0,0,0,0-.14.27.27,0,0,0-.11-.23.45.45,0,0,0-.3-.08h-.33Zm27.13-1.34.26-.37h.39l-.4.37Z"/><path class="cls-2" d="M87.57,8.11a2.23,2.23,0,0,1,.74-.37,3.36,3.36,0,0,1,1.06-.14,2.67,2.67,0,0,1,.73.1,2.87,2.87,0,0,1,.67.28,2.12,2.12,0,0,1,.55.53,1.49,1.49,0,0,1,.24.8v.13h1.89V8.14H93a3.89,3.89,0,0,0-.57-.84,3.6,3.6,0,0,0-.79-.67,4,4,0,0,0-1-.44A4.59,4.59,0,0,0,89.42,6a5.57,5.57,0,0,0-1.76.26A4,4,0,0,0,86.35,7a3.1,3.1,0,0,0-.81,1.07,3.25,3.25,0,0,0-.27,1.32,3.75,3.75,0,0,0,.18,1.23,3.26,3.26,0,0,0,.53.93,3.69,3.69,0,0,0,.83.67,5.36,5.36,0,0,0,1.06.45l1.75.5c.24.07.48.16.74.26a2.93,2.93,0,0,1,.69.39,1.87,1.87,0,0,1,.51.57,1.48,1.48,0,0,1,.2.81,1.71,1.71,0,0,1-.16.77,1.45,1.45,0,0,1-.46.58,2.06,2.06,0,0,1-.74.37,4,4,0,0,1-2,0,2.41,2.41,0,0,1-.79-.37,1.67,1.67,0,0,1-.52-.6,2.68,2.68,0,0,1-.18-1v-.14H85v1.3h.48a4,4,0,0,0,.42.92,3,3,0,0,0,.73.82,3.75,3.75,0,0,0,1.13.58,5.42,5.42,0,0,0,1.61.21A5.08,5.08,0,0,0,91,18.42a4.06,4.06,0,0,0,1.33-.74,3.53,3.53,0,0,0,.87-1.13,3.2,3.2,0,0,0,.31-1.41,3.4,3.4,0,0,0-.2-1.24,2.69,2.69,0,0,0-.58-.94,3.47,3.47,0,0,0-.94-.71,8,8,0,0,0-1.29-.53l-1.62-.53L88.25,11a2.63,2.63,0,0,1-.63-.31,1.48,1.48,0,0,1-.46-.5A1.74,1.74,0,0,1,87,9.32a1.67,1.67,0,0,1,.15-.66A1.56,1.56,0,0,1,87.57,8.11Z"/><polygon class="cls-3" points="68.45 0 70.03 1.75 71.61 0 74.02 0 71.62 2.67 68.45 2.67 66.05 0 68.45 0"/><path class="cls-2" d="M71.79,18.79a3.61,3.61,0,0,1-1.61,3.41c-.24.16-1.91,1.07-1.91,1.07V21.32s.57-.31.72-.41a2.1,2.1,0,0,0,.66-.6A3,3,0,0,0,70,18.6V5.19H68.3V3.56h3.49Z"/><path class="cls-2" d="M81.22,6V7.46h.59v5.75a6.3,6.3,0,0,1-.23,1.84,3.05,3.05,0,0,1-.65,1.17,2.28,2.28,0,0,1-1,.62,4,4,0,0,1-2.52,0,2.44,2.44,0,0,1-1-.66A3.31,3.31,0,0,1,75.82,15a5.72,5.72,0,0,1-.23-1.77V6H73.22V7.46h.62v5.72a6.7,6.7,0,0,0,.37,2.33,5.33,5.33,0,0,0,1,1.74,4.16,4.16,0,0,0,1.52,1.07,4.71,4.71,0,0,0,1.88.37,5,5,0,0,0,1.92-.37,4.55,4.55,0,0,0,1.55-1.09,5.2,5.2,0,0,0,1-1.78A7.23,7.23,0,0,0,83.52,13V6Z"/></g></g></svg>